<svg width="72" height="72" viewBox="0 0 72 72" fill="none" xmlns="http://www.w3.org/2000/svg">
  <!-- Background circle -->
  <circle cx="36" cy="26" r="24" fill="#f4a236" fill-opacity="0.9" shape-rendering="crispEdges"/>

  <!-- Outer border circle -->
  <circle cx="36" cy="26" r="24" fill="none" stroke="#995b00" stroke-width="2"/>

  <!-- Icon paths grouped and centered -->
  <g transform="translate(25, 15.5)" stroke="#995b00" stroke-width="2">
    <path d="M10 10h4 M19 7V4a1 1 0 0 0-1-1h-2a1 1 0 0 0-1 1v3 M20 21a2 2 0 0 0 2-2v-3.851c0-1.39-2-2.962-2-4.829V8a1 1 0 0 0-1-1h-4a1 1 0 0 0-1 1v11a2 2 0 0 0 2 2z M 22 16 L 2 16 M4 21a2 2 0 0 1-2-2v-3.851c0-1.39 2-2.962 2-4.829V8a1 1 0 0 1 1-1h4a1 1 0 0 1 1 1v11a2 2 0 0 1-2 2z M9 7V4a1 1 0 0 0-1-1H6a1 1 0 0 0-1 1v3"/>
  </g>
</svg>
