<svg width="72" height="72" viewBox="0 0 72 72" fill="none" xmlns="http://www.w3.org/2000/svg">
  <!-- Background circle -->
  <circle cx="36" cy="26" r="24" fill="#D0FAE5" fill-opacity="0.9" shape-rendering="crispEdges"/>

  <!-- Outer border circle -->
  <circle cx="36" cy="26" r="24" fill="none" stroke="#009966" stroke-width="2"/>

  <!-- Icon paths -->
  <path d="M40.1668 27.6667L42.6668 30.4167C42.781 30.5331 42.8585 30.6806 42.8898 30.8407C42.921 31.0008 42.9045 31.1665 42.8424 31.3174C42.7803 31.4682 42.6752 31.5975 42.5404 31.6892C42.4055 31.7809 42.2466 31.831 42.0835 31.8333H29.9168C29.7537 31.831 29.5949 31.7809 29.46 31.6892C29.3251 31.5975 29.2201 31.4682 29.158 31.3174C29.0959 31.1665 29.0794 31.0008 29.1106 30.8407C29.1418 30.6806 29.2193 30.5331 29.3335 30.4167L31.8335 27.6667H31.5835C31.4204 27.6644 31.2616 27.6143 31.1267 27.5225C30.9918 27.4308 30.8868 27.3015 30.8247 27.1507C30.7625 26.9999 30.7461 26.8341 30.7773 26.674C30.8085 26.5139 30.886 26.3665 31.0002 26.25L33.5002 23.5H33.3335C33.1633 23.5154 32.9925 23.478 32.8442 23.393C32.6959 23.308 32.5774 23.1795 32.5046 23.0249C32.4319 22.8702 32.4084 22.697 32.4374 22.5285C32.4664 22.3601 32.5465 22.2047 32.6668 22.0833L36.0002 18.5L39.3335 22.0833C39.4538 22.2047 39.5339 22.3601 39.5629 22.5285C39.592 22.697 39.5685 22.8702 39.4957 23.0249C39.423 23.1795 39.3044 23.308 39.1561 23.393C39.0079 23.478 38.8371 23.5154 38.6668 23.5H38.5002L41.0002 26.25C41.1144 26.3665 41.1919 26.5139 41.2231 26.674C41.2543 26.8341 41.2378 26.9999 41.1757 27.1507C41.1136 27.3015 41.0086 27.4308 40.8737 27.5225C40.7388 27.6143 40.5799 27.6644 40.4168 27.6667H40.1668Z" stroke="#007A55" stroke-width="1.66667" stroke-linecap="round" stroke-linejoin="round"/>
  <path d="M36 34.3335V31.8335" stroke="#007A55" stroke-width="1.66667" stroke-linecap="round" stroke-linejoin="round"/>
</svg>